<mxfile host="65bd71144e">
    <diagram id="9NxstFvH284EXf1doNHl" name="Page-1">
        <mxGraphModel dx="853" dy="846" grid="1" gridSize="10" guides="1" tooltips="1" connect="1" arrows="1" fold="1" page="1" pageScale="1" pageWidth="827" pageHeight="1169" math="0" shadow="0">
            <root>
                <mxCell id="0"/>
                <mxCell id="1" parent="0"/>
                <mxCell id="3" value="" style="html=1;verticalLabelPosition=bottom;align=center;labelBackgroundColor=#ffffff;verticalAlign=top;strokeWidth=2;strokeColor=#0080F0;shadow=0;dashed=0;shape=mxgraph.ios7.icons.book;" vertex="1" parent="1">
                    <mxGeometry x="339" y="290" width="150" height="115.5" as="geometry"/>
                </mxCell>
                <mxCell id="4" value="book_id" style="ellipse;shape=cloud;whiteSpace=wrap;html=1;" vertex="1" parent="1">
                    <mxGeometry x="20" y="180" width="120" height="80" as="geometry"/>
                </mxCell>
                <mxCell id="5" value="title" style="ellipse;shape=cloud;whiteSpace=wrap;html=1;" vertex="1" parent="1">
                    <mxGeometry x="100" y="100" width="120" height="80" as="geometry"/>
                </mxCell>
                <mxCell id="6" value="author" style="ellipse;shape=cloud;whiteSpace=wrap;html=1;" vertex="1" parent="1">
                    <mxGeometry x="220" y="30" width="120" height="80" as="geometry"/>
                </mxCell>
                <mxCell id="7" value="description" style="ellipse;shape=cloud;whiteSpace=wrap;html=1;" vertex="1" parent="1">
                    <mxGeometry x="354" y="10" width="120" height="80" as="geometry"/>
                </mxCell>
                <mxCell id="8" value="chapters" style="ellipse;shape=cloud;whiteSpace=wrap;html=1;" vertex="1" parent="1">
                    <mxGeometry x="489" y="30" width="120" height="80" as="geometry"/>
                </mxCell>
                <mxCell id="9" value="purchased" style="ellipse;shape=cloud;whiteSpace=wrap;html=1;" vertex="1" parent="1">
                    <mxGeometry x="620" y="100" width="120" height="80" as="geometry"/>
                </mxCell>
                <mxCell id="10" value="read" style="ellipse;shape=cloud;whiteSpace=wrap;html=1;" vertex="1" parent="1">
                    <mxGeometry x="710" y="180" width="120" height="80" as="geometry"/>
                </mxCell>
                <mxCell id="11" value="genre" style="ellipse;shape=cloud;whiteSpace=wrap;html=1;" vertex="1" parent="1">
                    <mxGeometry x="770" y="280" width="120" height="80" as="geometry"/>
                </mxCell>
            </root>
        </mxGraphModel>
    </diagram>
    <diagram id="-jC3xOtd37J_SN4_oQJF" name="Page-2">
        <mxGraphModel dx="853" dy="846" grid="1" gridSize="10" guides="1" tooltips="1" connect="1" arrows="1" fold="1" page="1" pageScale="1" pageWidth="827" pageHeight="1169" math="0" shadow="0">
            <root>
                <mxCell id="iR01km-0sqNDZLgaSOdG-0"/>
                <mxCell id="iR01km-0sqNDZLgaSOdG-1" parent="iR01km-0sqNDZLgaSOdG-0"/>
                <mxCell id="eirllRm_Po4OTcjVNEwi-20" style="edgeStyle=none;html=1;exitX=0.5;exitY=1;exitDx=0;exitDy=0;entryX=0.5;entryY=0;entryDx=0;entryDy=0;endArrow=ERone;endFill=0;" edge="1" parent="iR01km-0sqNDZLgaSOdG-1" source="htg9aAoqaMm_4eRdVR3d-0" target="htg9aAoqaMm_4eRdVR3d-2">
                    <mxGeometry relative="1" as="geometry"/>
                </mxCell>
                <mxCell id="eirllRm_Po4OTcjVNEwi-21" style="edgeStyle=none;html=1;exitX=0;exitY=0.5;exitDx=0;exitDy=0;entryX=1;entryY=0.5;entryDx=0;entryDy=0;endArrow=none;endFill=0;" edge="1" parent="iR01km-0sqNDZLgaSOdG-1" source="htg9aAoqaMm_4eRdVR3d-0" target="eirllRm_Po4OTcjVNEwi-8">
                    <mxGeometry relative="1" as="geometry"/>
                </mxCell>
                <mxCell id="eirllRm_Po4OTcjVNEwi-22" style="edgeStyle=none;html=1;exitX=0;exitY=0.25;exitDx=0;exitDy=0;entryX=0.95;entryY=0.763;entryDx=0;entryDy=0;entryPerimeter=0;endArrow=none;endFill=0;" edge="1" parent="iR01km-0sqNDZLgaSOdG-1" source="htg9aAoqaMm_4eRdVR3d-0" target="eirllRm_Po4OTcjVNEwi-9">
                    <mxGeometry relative="1" as="geometry"/>
                </mxCell>
                <mxCell id="eirllRm_Po4OTcjVNEwi-23" style="edgeStyle=none;html=1;exitX=0.25;exitY=0;exitDx=0;exitDy=0;entryX=1;entryY=1;entryDx=0;entryDy=0;endArrow=none;endFill=0;" edge="1" parent="iR01km-0sqNDZLgaSOdG-1" source="htg9aAoqaMm_4eRdVR3d-0" target="eirllRm_Po4OTcjVNEwi-10">
                    <mxGeometry relative="1" as="geometry"/>
                </mxCell>
                <mxCell id="eirllRm_Po4OTcjVNEwi-24" style="edgeStyle=none;html=1;exitX=0.5;exitY=0;exitDx=0;exitDy=0;endArrow=none;endFill=0;" edge="1" parent="iR01km-0sqNDZLgaSOdG-1" source="htg9aAoqaMm_4eRdVR3d-0" target="eirllRm_Po4OTcjVNEwi-12">
                    <mxGeometry relative="1" as="geometry"/>
                </mxCell>
                <mxCell id="eirllRm_Po4OTcjVNEwi-25" style="edgeStyle=none;html=1;exitX=0.75;exitY=0;exitDx=0;exitDy=0;entryX=0;entryY=1;entryDx=0;entryDy=0;endArrow=none;endFill=0;" edge="1" parent="iR01km-0sqNDZLgaSOdG-1" source="htg9aAoqaMm_4eRdVR3d-0" target="eirllRm_Po4OTcjVNEwi-11">
                    <mxGeometry relative="1" as="geometry"/>
                </mxCell>
                <mxCell id="eirllRm_Po4OTcjVNEwi-26" style="edgeStyle=none;html=1;exitX=1;exitY=0.25;exitDx=0;exitDy=0;entryX=0;entryY=1;entryDx=0;entryDy=0;endArrow=none;endFill=0;" edge="1" parent="iR01km-0sqNDZLgaSOdG-1" source="htg9aAoqaMm_4eRdVR3d-0" target="eirllRm_Po4OTcjVNEwi-13">
                    <mxGeometry relative="1" as="geometry"/>
                </mxCell>
                <mxCell id="eirllRm_Po4OTcjVNEwi-27" style="edgeStyle=none;html=1;exitX=1;exitY=0.5;exitDx=0;exitDy=0;entryX=0;entryY=0.5;entryDx=0;entryDy=0;endArrow=none;endFill=0;" edge="1" parent="iR01km-0sqNDZLgaSOdG-1" source="htg9aAoqaMm_4eRdVR3d-0" target="eirllRm_Po4OTcjVNEwi-14">
                    <mxGeometry relative="1" as="geometry"/>
                </mxCell>
                <mxCell id="eirllRm_Po4OTcjVNEwi-28" style="edgeStyle=none;html=1;exitX=1;exitY=0.75;exitDx=0;exitDy=0;entryX=0;entryY=0;entryDx=0;entryDy=0;endArrow=none;endFill=0;" edge="1" parent="iR01km-0sqNDZLgaSOdG-1" source="htg9aAoqaMm_4eRdVR3d-0" target="eirllRm_Po4OTcjVNEwi-16">
                    <mxGeometry relative="1" as="geometry"/>
                </mxCell>
                <mxCell id="htg9aAoqaMm_4eRdVR3d-0" value="book" style="rounded=0;whiteSpace=wrap;html=1;" vertex="1" parent="iR01km-0sqNDZLgaSOdG-1">
                    <mxGeometry x="354" y="150" width="120" height="60" as="geometry"/>
                </mxCell>
                <mxCell id="eirllRm_Po4OTcjVNEwi-17" style="edgeStyle=none;html=1;exitX=0.5;exitY=0;exitDx=0;exitDy=0;entryX=0.5;entryY=1;entryDx=0;entryDy=0;endArrow=ERmany;endFill=0;" edge="1" parent="iR01km-0sqNDZLgaSOdG-1" source="htg9aAoqaMm_4eRdVR3d-1" target="htg9aAoqaMm_4eRdVR3d-2">
                    <mxGeometry relative="1" as="geometry"/>
                </mxCell>
                <mxCell id="htg9aAoqaMm_4eRdVR3d-1" value="owner" style="rounded=0;whiteSpace=wrap;html=1;" vertex="1" parent="iR01km-0sqNDZLgaSOdG-1">
                    <mxGeometry x="354" y="670" width="120" height="60" as="geometry"/>
                </mxCell>
                <mxCell id="htg9aAoqaMm_4eRdVR3d-2" value="own" style="rhombus;whiteSpace=wrap;html=1;" vertex="1" parent="iR01km-0sqNDZLgaSOdG-1">
                    <mxGeometry x="374" y="390" width="80" height="80" as="geometry"/>
                </mxCell>
                <mxCell id="eirllRm_Po4OTcjVNEwi-8" value="book_id" style="ellipse;whiteSpace=wrap;html=1;" vertex="1" parent="iR01km-0sqNDZLgaSOdG-1">
                    <mxGeometry x="170" y="155" width="90" height="50" as="geometry"/>
                </mxCell>
                <mxCell id="eirllRm_Po4OTcjVNEwi-9" value="title" style="ellipse;whiteSpace=wrap;html=1;" vertex="1" parent="iR01km-0sqNDZLgaSOdG-1">
                    <mxGeometry x="210" y="100" width="90" height="50" as="geometry"/>
                </mxCell>
                <mxCell id="eirllRm_Po4OTcjVNEwi-10" value="author" style="ellipse;whiteSpace=wrap;html=1;" vertex="1" parent="iR01km-0sqNDZLgaSOdG-1">
                    <mxGeometry x="280" y="50" width="90" height="50" as="geometry"/>
                </mxCell>
                <mxCell id="eirllRm_Po4OTcjVNEwi-11" value="description" style="ellipse;whiteSpace=wrap;html=1;" vertex="1" parent="iR01km-0sqNDZLgaSOdG-1">
                    <mxGeometry x="459" y="50" width="90" height="50" as="geometry"/>
                </mxCell>
                <mxCell id="eirllRm_Po4OTcjVNEwi-12" value="genre" style="ellipse;whiteSpace=wrap;html=1;" vertex="1" parent="iR01km-0sqNDZLgaSOdG-1">
                    <mxGeometry x="369" y="20" width="90" height="50" as="geometry"/>
                </mxCell>
                <mxCell id="eirllRm_Po4OTcjVNEwi-13" value="chapters" style="ellipse;whiteSpace=wrap;html=1;" vertex="1" parent="iR01km-0sqNDZLgaSOdG-1">
                    <mxGeometry x="540" y="100" width="90" height="50" as="geometry"/>
                </mxCell>
                <mxCell id="eirllRm_Po4OTcjVNEwi-14" value="purchased" style="ellipse;whiteSpace=wrap;html=1;" vertex="1" parent="iR01km-0sqNDZLgaSOdG-1">
                    <mxGeometry x="610" y="155" width="90" height="50" as="geometry"/>
                </mxCell>
                <mxCell id="eirllRm_Po4OTcjVNEwi-16" value="read" style="ellipse;whiteSpace=wrap;html=1;" vertex="1" parent="iR01km-0sqNDZLgaSOdG-1">
                    <mxGeometry x="540" y="220" width="90" height="50" as="geometry"/>
                </mxCell>
                <mxCell id="PUPyH2FY59Nrht4lukK8-1" style="edgeStyle=none;html=1;exitX=0.5;exitY=0;exitDx=0;exitDy=0;entryX=0.5;entryY=1;entryDx=0;entryDy=0;endArrow=none;endFill=0;" edge="1" parent="iR01km-0sqNDZLgaSOdG-1" source="PUPyH2FY59Nrht4lukK8-0" target="htg9aAoqaMm_4eRdVR3d-1">
                    <mxGeometry relative="1" as="geometry"/>
                </mxCell>
                <mxCell id="PUPyH2FY59Nrht4lukK8-0" value="owner_id" style="ellipse;whiteSpace=wrap;html=1;" vertex="1" parent="iR01km-0sqNDZLgaSOdG-1">
                    <mxGeometry x="369" y="800" width="90" height="50" as="geometry"/>
                </mxCell>
            </root>
        </mxGraphModel>
    </diagram>
    <diagram id="Ysltn1Xqjg_114Hhejhh" name="Page-3">
        <mxGraphModel dx="853" dy="846" grid="1" gridSize="10" guides="1" tooltips="1" connect="1" arrows="1" fold="1" page="1" pageScale="1" pageWidth="827" pageHeight="1169" math="0" shadow="0">
            <root>
                <mxCell id="8uzTGBk1NfXG_RLf36IM-0"/>
                <mxCell id="8uzTGBk1NfXG_RLf36IM-1" parent="8uzTGBk1NfXG_RLf36IM-0"/>
                <mxCell id="8uzTGBk1NfXG_RLf36IM-2" value="books" style="swimlane;fontStyle=0;childLayout=stackLayout;horizontal=1;startSize=26;fillColor=none;horizontalStack=0;resizeParent=1;resizeParentMax=0;resizeLast=0;collapsible=1;marginBottom=0;" vertex="1" parent="8uzTGBk1NfXG_RLf36IM-1">
                    <mxGeometry x="60" y="140" width="140" height="260" as="geometry"/>
                </mxCell>
                <mxCell id="8uzTGBk1NfXG_RLf36IM-3" value="+ book_id: int" style="text;strokeColor=none;fillColor=none;align=left;verticalAlign=top;spacingLeft=4;spacingRight=4;overflow=hidden;rotatable=0;points=[[0,0.5],[1,0.5]];portConstraint=eastwest;" vertex="1" parent="8uzTGBk1NfXG_RLf36IM-2">
                    <mxGeometry y="26" width="140" height="26" as="geometry"/>
                </mxCell>
                <mxCell id="8uzTGBk1NfXG_RLf36IM-4" value="+ title: string" style="text;strokeColor=none;fillColor=none;align=left;verticalAlign=top;spacingLeft=4;spacingRight=4;overflow=hidden;rotatable=0;points=[[0,0.5],[1,0.5]];portConstraint=eastwest;" vertex="1" parent="8uzTGBk1NfXG_RLf36IM-2">
                    <mxGeometry y="52" width="140" height="26" as="geometry"/>
                </mxCell>
                <mxCell id="8uzTGBk1NfXG_RLf36IM-5" value="+ author: string" style="text;strokeColor=none;fillColor=none;align=left;verticalAlign=top;spacingLeft=4;spacingRight=4;overflow=hidden;rotatable=0;points=[[0,0.5],[1,0.5]];portConstraint=eastwest;" vertex="1" parent="8uzTGBk1NfXG_RLf36IM-2">
                    <mxGeometry y="78" width="140" height="26" as="geometry"/>
                </mxCell>
                <mxCell id="4H3EOQOVaQzsomSAoGdP-0" value="+ genre: string" style="text;strokeColor=none;fillColor=none;align=left;verticalAlign=top;spacingLeft=4;spacingRight=4;overflow=hidden;rotatable=0;points=[[0,0.5],[1,0.5]];portConstraint=eastwest;" vertex="1" parent="8uzTGBk1NfXG_RLf36IM-2">
                    <mxGeometry y="104" width="140" height="26" as="geometry"/>
                </mxCell>
                <mxCell id="4H3EOQOVaQzsomSAoGdP-1" value="+ description: string" style="text;strokeColor=none;fillColor=none;align=left;verticalAlign=top;spacingLeft=4;spacingRight=4;overflow=hidden;rotatable=0;points=[[0,0.5],[1,0.5]];portConstraint=eastwest;" vertex="1" parent="8uzTGBk1NfXG_RLf36IM-2">
                    <mxGeometry y="130" width="140" height="26" as="geometry"/>
                </mxCell>
                <mxCell id="4H3EOQOVaQzsomSAoGdP-2" value="+ chapters: string" style="text;strokeColor=none;fillColor=none;align=left;verticalAlign=top;spacingLeft=4;spacingRight=4;overflow=hidden;rotatable=0;points=[[0,0.5],[1,0.5]];portConstraint=eastwest;" vertex="1" parent="8uzTGBk1NfXG_RLf36IM-2">
                    <mxGeometry y="156" width="140" height="26" as="geometry"/>
                </mxCell>
                <mxCell id="4H3EOQOVaQzsomSAoGdP-3" value="+ purchased: string" style="text;strokeColor=none;fillColor=none;align=left;verticalAlign=top;spacingLeft=4;spacingRight=4;overflow=hidden;rotatable=0;points=[[0,0.5],[1,0.5]];portConstraint=eastwest;" vertex="1" parent="8uzTGBk1NfXG_RLf36IM-2">
                    <mxGeometry y="182" width="140" height="26" as="geometry"/>
                </mxCell>
                <mxCell id="4H3EOQOVaQzsomSAoGdP-4" value="+ read: boolean" style="text;strokeColor=none;fillColor=none;align=left;verticalAlign=top;spacingLeft=4;spacingRight=4;overflow=hidden;rotatable=0;points=[[0,0.5],[1,0.5]];portConstraint=eastwest;" vertex="1" parent="8uzTGBk1NfXG_RLf36IM-2">
                    <mxGeometry y="208" width="140" height="26" as="geometry"/>
                </mxCell>
                <mxCell id="4H3EOQOVaQzsomSAoGdP-5" value="+ fk_owner_id: int" style="text;strokeColor=none;fillColor=none;align=left;verticalAlign=top;spacingLeft=4;spacingRight=4;overflow=hidden;rotatable=0;points=[[0,0.5],[1,0.5]];portConstraint=eastwest;" vertex="1" parent="8uzTGBk1NfXG_RLf36IM-2">
                    <mxGeometry y="234" width="140" height="26" as="geometry"/>
                </mxCell>
                <mxCell id="bdTRYASZzFCrLZtpjIcv-0" value="owner" style="swimlane;fontStyle=0;childLayout=stackLayout;horizontal=1;startSize=26;fillColor=none;horizontalStack=0;resizeParent=1;resizeParentMax=0;resizeLast=0;collapsible=1;marginBottom=0;" vertex="1" parent="8uzTGBk1NfXG_RLf36IM-1">
                    <mxGeometry x="290" y="140" width="140" height="104" as="geometry"/>
                </mxCell>
                <mxCell id="bdTRYASZzFCrLZtpjIcv-1" value="+ owner_id: int" style="text;strokeColor=none;fillColor=none;align=left;verticalAlign=top;spacingLeft=4;spacingRight=4;overflow=hidden;rotatable=0;points=[[0,0.5],[1,0.5]];portConstraint=eastwest;" vertex="1" parent="bdTRYASZzFCrLZtpjIcv-0">
                    <mxGeometry y="26" width="140" height="26" as="geometry"/>
                </mxCell>
                <mxCell id="bdTRYASZzFCrLZtpjIcv-2" value="+ fName: string" style="text;strokeColor=none;fillColor=none;align=left;verticalAlign=top;spacingLeft=4;spacingRight=4;overflow=hidden;rotatable=0;points=[[0,0.5],[1,0.5]];portConstraint=eastwest;" vertex="1" parent="bdTRYASZzFCrLZtpjIcv-0">
                    <mxGeometry y="52" width="140" height="26" as="geometry"/>
                </mxCell>
                <mxCell id="bdTRYASZzFCrLZtpjIcv-3" value="+ lName: string" style="text;strokeColor=none;fillColor=none;align=left;verticalAlign=top;spacingLeft=4;spacingRight=4;overflow=hidden;rotatable=0;points=[[0,0.5],[1,0.5]];portConstraint=eastwest;" vertex="1" parent="bdTRYASZzFCrLZtpjIcv-0">
                    <mxGeometry y="78" width="140" height="26" as="geometry"/>
                </mxCell>
                <mxCell id="bdTRYASZzFCrLZtpjIcv-5" style="edgeStyle=none;html=1;exitX=0;exitY=0.5;exitDx=0;exitDy=0;entryX=1;entryY=0.5;entryDx=0;entryDy=0;endArrow=none;endFill=0;" edge="1" parent="8uzTGBk1NfXG_RLf36IM-1" source="bdTRYASZzFCrLZtpjIcv-1" target="4H3EOQOVaQzsomSAoGdP-5">
                    <mxGeometry relative="1" as="geometry">
                        <Array as="points">
                            <mxPoint x="240" y="179"/>
                            <mxPoint x="240" y="387"/>
                        </Array>
                    </mxGeometry>
                </mxCell>
            </root>
        </mxGraphModel>
    </diagram>
</mxfile>